<mxfile host="app.diagrams.net" modified="2023-02-25T00:48:52.580Z" agent="5.0 (Macintosh; Intel Mac OS X 10_15_7) AppleWebKit/537.36 (KHTML, like Gecko) Chrome/110.0.0.0 Safari/537.36" etag="_LJJQ6g_rspdoL5tnxjA" version="20.8.23" type="github">
  <diagram name="Page-1" id="waHqqbtlrEqOYg9hyjKR">
    <mxGraphModel dx="1234" dy="1074" grid="1" gridSize="10" guides="1" tooltips="1" connect="1" arrows="1" fold="1" page="1" pageScale="1" pageWidth="850" pageHeight="1100" math="0" shadow="0">
      <root>
        <mxCell id="0" />
        <mxCell id="1" parent="0" />
        <mxCell id="D-7Qik0uSuOHg3b7LZpZ-8" style="edgeStyle=none;rounded=0;orthogonalLoop=1;jettySize=auto;html=1;entryX=0;entryY=0.5;entryDx=0;entryDy=0;" edge="1" parent="1" source="D-7Qik0uSuOHg3b7LZpZ-1" target="D-7Qik0uSuOHg3b7LZpZ-2">
          <mxGeometry relative="1" as="geometry" />
        </mxCell>
        <mxCell id="D-7Qik0uSuOHg3b7LZpZ-9" style="edgeStyle=none;rounded=0;orthogonalLoop=1;jettySize=auto;html=1;entryX=0;entryY=1;entryDx=0;entryDy=0;" edge="1" parent="1" source="D-7Qik0uSuOHg3b7LZpZ-1" target="D-7Qik0uSuOHg3b7LZpZ-5">
          <mxGeometry relative="1" as="geometry" />
        </mxCell>
        <mxCell id="D-7Qik0uSuOHg3b7LZpZ-10" style="edgeStyle=none;rounded=0;orthogonalLoop=1;jettySize=auto;html=1;entryX=0;entryY=0.5;entryDx=0;entryDy=0;entryPerimeter=0;" edge="1" parent="1" source="D-7Qik0uSuOHg3b7LZpZ-1" target="D-7Qik0uSuOHg3b7LZpZ-4">
          <mxGeometry relative="1" as="geometry" />
        </mxCell>
        <mxCell id="D-7Qik0uSuOHg3b7LZpZ-1" value="Engineerings" style="shape=umlActor;verticalLabelPosition=bottom;verticalAlign=top;html=1;outlineConnect=0;" vertex="1" parent="1">
          <mxGeometry x="140" y="560" width="30" height="60" as="geometry" />
        </mxCell>
        <mxCell id="D-7Qik0uSuOHg3b7LZpZ-6" style="rounded=0;orthogonalLoop=1;jettySize=auto;html=1;" edge="1" parent="1" source="D-7Qik0uSuOHg3b7LZpZ-2" target="D-7Qik0uSuOHg3b7LZpZ-4">
          <mxGeometry relative="1" as="geometry" />
        </mxCell>
        <mxCell id="D-7Qik0uSuOHg3b7LZpZ-11" style="edgeStyle=none;rounded=0;orthogonalLoop=1;jettySize=auto;html=1;startArrow=classic;startFill=1;" edge="1" parent="1" source="D-7Qik0uSuOHg3b7LZpZ-2" target="D-7Qik0uSuOHg3b7LZpZ-5">
          <mxGeometry relative="1" as="geometry" />
        </mxCell>
        <mxCell id="D-7Qik0uSuOHg3b7LZpZ-2" value="Gitlab Master" style="rounded=1;whiteSpace=wrap;html=1;" vertex="1" parent="1">
          <mxGeometry x="560" y="560" width="120" height="60" as="geometry" />
        </mxCell>
        <mxCell id="D-7Qik0uSuOHg3b7LZpZ-4" value="" style="shape=cylinder3;whiteSpace=wrap;html=1;boundedLbl=1;backgroundOutline=1;size=15;" vertex="1" parent="1">
          <mxGeometry x="240" y="230" width="60" height="80" as="geometry" />
        </mxCell>
        <mxCell id="D-7Qik0uSuOHg3b7LZpZ-7" style="edgeStyle=none;rounded=0;orthogonalLoop=1;jettySize=auto;html=1;entryX=1;entryY=0.5;entryDx=0;entryDy=0;entryPerimeter=0;" edge="1" parent="1" source="D-7Qik0uSuOHg3b7LZpZ-5" target="D-7Qik0uSuOHg3b7LZpZ-4">
          <mxGeometry relative="1" as="geometry" />
        </mxCell>
        <mxCell id="D-7Qik0uSuOHg3b7LZpZ-5" value="Gitlab Standby" style="rounded=1;whiteSpace=wrap;html=1;" vertex="1" parent="1">
          <mxGeometry x="560" y="330" width="120" height="60" as="geometry" />
        </mxCell>
        <mxCell id="D-7Qik0uSuOHg3b7LZpZ-13" value="Mirror" style="text;html=1;align=center;verticalAlign=middle;resizable=0;points=[];autosize=1;strokeColor=none;fillColor=none;" vertex="1" parent="1">
          <mxGeometry x="595" y="465" width="50" height="30" as="geometry" />
        </mxCell>
      </root>
    </mxGraphModel>
  </diagram>
</mxfile>
